<svg width="347" height="168" viewBox="0 0 347 168" fill="none" xmlns="http://www.w3.org/2000/svg">
<g filter="url(#filter0_i_99_232)">
<path d="M328.065 50.4403C328.484 48.0706 328.702 45.6329 328.702 43.1448C328.702 19.8689 309.588 1 286.008 1C268.479 1 253.417 11.4282 246.842 26.3428C241.515 21.803 234.603 19.0621 227.05 19.0621C210.207 19.0621 196.554 32.6896 196.554 49.5C196.554 50.4361 196.596 51.3623 196.679 52.2768C188.578 56.1937 183 64.4125 183 73.9172C183 87.2178 193.923 98 207.397 98H322.603C336.077 98 347 87.2178 347 73.9172C347 62.4703 338.909 52.8886 328.065 50.4403Z" fill="url(#paint0_linear_99_232)"/>
</g>
<g filter="url(#filter1_b_99_232)">
<g filter="url(#filter2_i_99_232)">
<path d="M250.326 85.6286C251.049 81.5244 251.426 77.3023 251.426 72.9931C251.426 32.6801 218.441 0 177.752 0C147.503 0 121.512 18.0612 110.166 43.8927C100.974 36.03 89.0468 31.2828 76.0124 31.2828C46.949 31.2828 23.3884 54.8851 23.3884 84C23.3884 85.6212 23.4615 87.2254 23.6045 88.8094C9.6255 95.5932 0 109.828 0 126.29C0 149.326 18.8485 168 42.0992 168H240.901C264.152 168 283 149.326 283 126.29C283 106.464 269.039 89.8689 250.326 85.6286Z" fill="url(#paint1_linear_99_232)"/>
</g>
</g>
<defs>
<filter id="filter0_i_99_232" x="183" y="1" width="164" height="107" filterUnits="userSpaceOnUse" color-interpolation-filters="sRGB">
<feFlood flood-opacity="0" result="BackgroundImageFix"/>
<feBlend mode="normal" in="SourceGraphic" in2="BackgroundImageFix" result="shape"/>
<feColorMatrix in="SourceAlpha" type="matrix" values="0 0 0 0 0 0 0 0 0 0 0 0 0 0 0 0 0 0 127 0" result="hardAlpha"/>
<feOffset dy="11"/>
<feGaussianBlur stdDeviation="5"/>
<feComposite in2="hardAlpha" operator="arithmetic" k2="-1" k3="1"/>
<feColorMatrix type="matrix" values="0 0 0 0 1 0 0 0 0 1 0 0 0 0 1 0 0 0 1 0"/>
<feBlend mode="normal" in2="shape" result="effect1_innerShadow_99_232"/>
</filter>
<filter id="filter1_b_99_232" x="-27" y="-27" width="337" height="222" filterUnits="userSpaceOnUse" color-interpolation-filters="sRGB">
<feFlood flood-opacity="0" result="BackgroundImageFix"/>
<feGaussianBlur in="BackgroundImageFix" stdDeviation="13.5"/>
<feComposite in2="SourceAlpha" operator="in" result="effect1_backgroundBlur_99_232"/>
<feBlend mode="normal" in="SourceGraphic" in2="effect1_backgroundBlur_99_232" result="shape"/>
</filter>
<filter id="filter2_i_99_232" x="0" y="0" width="283" height="178" filterUnits="userSpaceOnUse" color-interpolation-filters="sRGB">
<feFlood flood-opacity="0" result="BackgroundImageFix"/>
<feBlend mode="normal" in="SourceGraphic" in2="BackgroundImageFix" result="shape"/>
<feColorMatrix in="SourceAlpha" type="matrix" values="0 0 0 0 0 0 0 0 0 0 0 0 0 0 0 0 0 0 127 0" result="hardAlpha"/>
<feOffset dy="11"/>
<feGaussianBlur stdDeviation="5"/>
<feComposite in2="hardAlpha" operator="arithmetic" k2="-1" k3="1"/>
<feColorMatrix type="matrix" values="0 0 0 0 1 0 0 0 0 1 0 0 0 0 1 0 0 0 1 0"/>
<feBlend mode="normal" in2="shape" result="effect1_innerShadow_99_232"/>
</filter>
<linearGradient id="paint0_linear_99_232" x1="193.431" y1="89.3393" x2="358.444" y2="-34.5129" gradientUnits="userSpaceOnUse">
<stop stop-color="white"/>
<stop offset="1" stop-color="white" stop-opacity="0.58"/>
</linearGradient>
<linearGradient id="paint1_linear_99_232" x1="18" y1="153" x2="303.5" y2="-60.5" gradientUnits="userSpaceOnUse">
<stop stop-color="white"/>
<stop offset="1" stop-color="white" stop-opacity="0.58"/>
</linearGradient>
</defs>
</svg>
