<svg width="396" height="310" viewBox="0 0 396 310" fill="none" xmlns="http://www.w3.org/2000/svg">
<g filter="url(#filter0_f_99_275)">
<rect x="78" y="182" width="240" height="35" rx="17.5" fill="#00BCFF"/>
</g>
<g filter="url(#filter1_b_99_275)">
<g filter="url(#filter2_i_99_275)">
<path d="M317.747 95.0084C318.549 90.4546 318.967 85.7701 318.967 80.9888C318.967 36.2599 282.369 0 237.223 0C203.661 0 174.823 20.0397 162.234 48.7008C152.035 39.9768 138.801 34.7095 124.339 34.7095C92.0918 34.7095 65.9504 60.8972 65.9504 93.2014C65.9504 95.0003 66.0315 96.7801 66.1902 98.5376C50.6799 106.065 40 121.858 40 140.124C40 165.683 60.9131 186.403 86.7108 186.403H307.289C333.087 186.403 354 165.683 354 140.124C354 118.126 338.51 99.7132 317.747 95.0084Z" fill="url(#paint0_linear_99_275)"/>
</g>
</g>
<g filter="url(#filter3_d_99_275)">
<path fill-rule="evenodd" clip-rule="evenodd" d="M169.358 232.877C169.724 231.749 169.105 230.538 167.977 230.172C166.849 229.807 165.638 230.425 165.272 231.553L162.395 240.433L158.15 232.12C157.611 231.064 156.317 230.645 155.261 231.184C154.205 231.723 153.786 233.017 154.325 234.073L158.57 242.387L149.69 239.51C148.562 239.144 147.351 239.763 146.985 240.891C146.62 242.019 147.238 243.231 148.366 243.596L157.246 246.473L148.933 250.718C147.876 251.257 147.457 252.551 147.997 253.607C148.536 254.663 149.83 255.082 150.886 254.543L159.2 250.298L156.323 259.178C155.957 260.306 156.576 261.518 157.704 261.883C158.832 262.249 160.043 261.63 160.409 260.502L163.286 251.622L167.531 259.935C168.07 260.991 169.364 261.411 170.42 260.871C171.476 260.332 171.895 259.038 171.356 257.982L167.111 249.668L175.991 252.545C177.119 252.911 178.331 252.292 178.696 251.164C179.062 250.036 178.443 248.825 177.315 248.459L168.434 245.582L176.748 241.337C177.804 240.798 178.223 239.504 177.684 238.448C177.144 237.392 175.851 236.973 174.795 237.512L166.481 241.757L169.358 232.877Z" fill="#01BCFF"/>
<path fill-rule="evenodd" clip-rule="evenodd" d="M209.104 162.793C209.618 161.204 208.748 159.498 207.158 158.983C205.569 158.469 203.864 159.34 203.349 160.929L199.546 172.668L193.934 161.678C193.174 160.19 191.353 159.6 189.865 160.36C188.378 161.119 187.787 162.941 188.547 164.429L194.159 175.419L182.42 171.616C180.831 171.101 179.125 171.972 178.61 173.561C178.096 175.15 178.966 176.855 180.555 177.37L192.295 181.173L181.305 186.785C179.817 187.545 179.227 189.366 179.986 190.854C180.746 192.342 182.568 192.932 184.055 192.172L195.046 186.56L191.243 198.3C190.728 199.889 191.599 201.594 193.188 202.109C194.777 202.624 196.482 201.753 196.997 200.164L200.8 188.425L206.412 199.415C207.171 200.902 208.993 201.492 210.481 200.733C211.968 199.973 212.558 198.151 211.799 196.664L206.187 185.674L217.927 189.477C219.516 189.991 221.221 189.121 221.736 187.532C222.251 185.943 221.38 184.237 219.791 183.722L208.051 179.919L219.041 174.307C220.529 173.548 221.119 171.726 220.36 170.238C219.6 168.751 217.778 168.161 216.291 168.92L205.301 174.532L209.104 162.793Z" fill="#01BCFF"/>
<path fill-rule="evenodd" clip-rule="evenodd" d="M150.893 179.075C151.338 177.7 150.585 176.224 149.209 175.778C147.834 175.333 146.358 176.086 145.912 177.462L142.612 187.649L137.742 178.112C137.085 176.824 135.508 176.314 134.22 176.971C132.933 177.628 132.422 179.205 133.079 180.493L137.949 190.03L127.762 186.73C126.387 186.284 124.91 187.038 124.465 188.413C124.019 189.789 124.773 191.265 126.148 191.71L136.336 195.011L126.799 199.88C125.511 200.538 125 202.115 125.658 203.402C126.315 204.69 127.892 205.201 129.18 204.543L138.717 199.673L135.416 209.861C134.971 211.236 135.725 212.712 137.1 213.158C138.475 213.603 139.952 212.849 140.397 211.474L143.697 201.287L148.567 210.824C149.225 212.112 150.801 212.622 152.089 211.965C153.377 211.307 153.887 209.731 153.23 208.443L148.36 198.906L158.547 202.206C159.923 202.652 161.399 201.898 161.844 200.523C162.29 199.147 161.536 197.671 160.161 197.225L149.974 193.925L159.511 189.055C160.798 188.398 161.309 186.821 160.652 185.534C159.994 184.246 158.417 183.735 157.13 184.393L147.593 189.262L150.893 179.075Z" fill="#01BCFF"/>
</g>
<g filter="url(#filter4_d_99_275)">
<path fill-rule="evenodd" clip-rule="evenodd" d="M227.446 263.039C227.891 264.649 229.557 265.594 231.167 265.149C232.777 264.704 233.721 263.039 233.277 261.429L229.995 249.543L240.72 255.626C242.173 256.451 244.019 255.941 244.843 254.488C245.667 253.035 245.157 251.189 243.705 250.365L232.979 244.281L244.865 240.999C246.475 240.555 247.42 238.889 246.975 237.279C246.53 235.669 244.865 234.724 243.255 235.169L231.369 238.451L237.453 227.725C238.277 226.273 237.767 224.427 236.314 223.603C234.861 222.779 233.015 223.288 232.191 224.741L226.108 235.467L222.825 223.581C222.381 221.971 220.715 221.026 219.105 221.471C217.495 221.915 216.55 223.581 216.995 225.191L220.277 237.077L209.552 230.993C208.099 230.169 206.253 230.679 205.429 232.132C204.605 233.584 205.114 235.43 206.567 236.254L217.293 242.338L205.407 245.62C203.797 246.065 202.852 247.731 203.297 249.341C203.741 250.951 205.407 251.895 207.017 251.451L218.903 248.169L212.819 258.894C211.995 260.347 212.505 262.193 213.958 263.017C215.411 263.841 217.256 263.331 218.08 261.878L224.164 251.153L227.446 263.039Z" fill="#01BCFF"/>
<path fill-rule="evenodd" clip-rule="evenodd" d="M267.071 217.432C267.456 218.826 268.898 219.643 270.291 219.259C271.685 218.874 272.503 217.432 272.118 216.038L269.27 205.724L278.577 211.003C279.834 211.717 281.432 211.276 282.145 210.018C282.859 208.761 282.417 207.163 281.16 206.45L271.853 201.17L282.167 198.322C283.56 197.937 284.378 196.495 283.993 195.102C283.609 193.708 282.167 192.891 280.773 193.275L270.459 196.124L275.738 186.816C276.452 185.559 276.01 183.961 274.753 183.248C273.495 182.535 271.898 182.976 271.184 184.233L265.905 193.541L263.057 183.226C262.672 181.833 261.23 181.015 259.837 181.4C258.443 181.785 257.625 183.226 258.01 184.62L260.858 194.934L251.551 189.655C250.294 188.942 248.696 189.383 247.983 190.64C247.269 191.898 247.711 193.496 248.968 194.209L258.275 199.488L247.961 202.336C246.568 202.721 245.75 204.163 246.135 205.556C246.52 206.95 247.961 207.768 249.355 207.383L259.669 204.535L254.39 213.842C253.676 215.1 254.118 216.697 255.375 217.411C256.633 218.124 258.23 217.683 258.944 216.425L264.223 207.118L267.071 217.432Z" fill="#01BCFF"/>
</g>
<defs>
<filter id="filter0_f_99_275" x="0" y="104" width="396" height="191" filterUnits="userSpaceOnUse" color-interpolation-filters="sRGB">
<feFlood flood-opacity="0" result="BackgroundImageFix"/>
<feBlend mode="normal" in="SourceGraphic" in2="BackgroundImageFix" result="shape"/>
<feGaussianBlur stdDeviation="39" result="effect1_foregroundBlur_99_275"/>
</filter>
<filter id="filter1_b_99_275" x="13" y="-27" width="368" height="240.403" filterUnits="userSpaceOnUse" color-interpolation-filters="sRGB">
<feFlood flood-opacity="0" result="BackgroundImageFix"/>
<feGaussianBlur in="BackgroundImageFix" stdDeviation="13.5"/>
<feComposite in2="SourceAlpha" operator="in" result="effect1_backgroundBlur_99_275"/>
<feBlend mode="normal" in="SourceGraphic" in2="effect1_backgroundBlur_99_275" result="shape"/>
</filter>
<filter id="filter2_i_99_275" x="40" y="0" width="314" height="196.403" filterUnits="userSpaceOnUse" color-interpolation-filters="sRGB">
<feFlood flood-opacity="0" result="BackgroundImageFix"/>
<feBlend mode="normal" in="SourceGraphic" in2="BackgroundImageFix" result="shape"/>
<feColorMatrix in="SourceAlpha" type="matrix" values="0 0 0 0 0 0 0 0 0 0 0 0 0 0 0 0 0 0 127 0" result="hardAlpha"/>
<feOffset dy="11"/>
<feGaussianBlur stdDeviation="5"/>
<feComposite in2="hardAlpha" operator="arithmetic" k2="-1" k3="1"/>
<feColorMatrix type="matrix" values="0 0 0 0 1 0 0 0 0 1 0 0 0 0 1 0 0 0 1 0"/>
<feBlend mode="normal" in2="shape" result="effect1_innerShadow_99_275"/>
</filter>
<filter id="filter3_d_99_275" x="44.7197" y="102.72" width="244.561" height="245.56" filterUnits="userSpaceOnUse" color-interpolation-filters="sRGB">
<feFlood flood-opacity="0" result="BackgroundImageFix"/>
<feColorMatrix in="SourceAlpha" type="matrix" values="0 0 0 0 0 0 0 0 0 0 0 0 0 0 0 0 0 0 127 0" result="hardAlpha"/>
<feOffset dy="20"/>
<feGaussianBlur stdDeviation="9.5"/>
<feComposite in2="hardAlpha" operator="out"/>
<feColorMatrix type="matrix" values="0 0 0 0 0.282353 0 0 0 0 0.180392 0 0 0 0 0.933333 0 0 0 1 0"/>
<feBlend mode="normal" in2="BackgroundImageFix" result="effect1_dropShadow_99_275"/>
<feBlend mode="normal" in="SourceGraphic" in2="effect1_dropShadow_99_275" result="shape"/>
</filter>
<filter id="filter4_d_99_275" x="119" y="103" width="239.641" height="240.641" filterUnits="userSpaceOnUse" color-interpolation-filters="sRGB">
<feFlood flood-opacity="0" result="BackgroundImageFix"/>
<feColorMatrix in="SourceAlpha" type="matrix" values="0 0 0 0 0 0 0 0 0 0 0 0 0 0 0 0 0 0 127 0" result="hardAlpha"/>
<feOffset dy="20"/>
<feGaussianBlur stdDeviation="9.5"/>
<feComposite in2="hardAlpha" operator="out"/>
<feColorMatrix type="matrix" values="0 0 0 0 0.282353 0 0 0 0 0.180392 0 0 0 0 0.933333 0 0 0 1 0"/>
<feBlend mode="normal" in2="BackgroundImageFix" result="effect1_dropShadow_99_275"/>
<feBlend mode="normal" in="SourceGraphic" in2="effect1_dropShadow_99_275" result="shape"/>
</filter>
<linearGradient id="paint0_linear_99_275" x1="59.9717" y1="169.76" x2="376.746" y2="-67.1272" gradientUnits="userSpaceOnUse">
<stop stop-color="white"/>
<stop offset="1" stop-color="white" stop-opacity="0.58"/>
</linearGradient>
</defs>
</svg>
