<svg width="410" height="469" viewBox="0 0 410 469" fill="none" xmlns="http://www.w3.org/2000/svg">
<g filter="url(#filter0_f_107_328)">
<path d="M152.855 53.1342C127.788 87.1678 123.442 133.614 145.554 171.914C167.666 210.213 210.063 229.672 252.07 224.981C243.138 237.108 231.576 247.659 217.642 255.704C164.604 286.325 97.2955 269.038 67.3042 217.091C37.3128 165.145 55.9957 98.2101 109.034 67.5887C122.967 59.544 137.886 54.8059 152.855 53.1342Z" fill="#FFEE94"/>
</g>
<g filter="url(#filter1_i_107_328)">
<path d="M150.517 67.4759C127.636 98.5429 123.668 140.941 143.853 175.902C164.038 210.863 202.739 228.626 241.085 224.343C232.931 235.413 222.377 245.045 209.657 252.388C161.243 280.34 99.8012 264.56 72.4241 217.141C45.047 169.723 62.1014 108.623 110.516 80.6704C123.235 73.327 136.854 69.0019 150.517 67.4759Z" fill="url(#paint0_linear_107_328)"/>
</g>
<g filter="url(#filter2_f_107_328)">
<rect x="92" y="341" width="240" height="35" rx="17.5" fill="#00BCFF"/>
</g>
<g filter="url(#filter3_b_107_328)">
<g filter="url(#filter4_i_107_328)">
<path d="M298.251 256.925C298.887 253.334 299.219 249.64 299.219 245.869C299.219 210.595 270.197 182 234.397 182C207.782 182 184.914 197.804 174.931 220.406C166.843 213.526 156.349 209.372 144.88 209.372C119.308 209.372 98.5785 230.024 98.5785 255.5C98.5785 256.919 98.6428 258.322 98.7686 259.708C86.4691 265.644 78 278.099 78 292.503C78 312.66 94.584 329 115.041 329H289.959C310.416 329 327 312.66 327 292.503C327 275.156 314.716 260.635 298.251 256.925Z" fill="url(#paint1_linear_107_328)"/>
</g>
</g>
<g filter="url(#filter5_d_107_328)">
<path fill-rule="evenodd" clip-rule="evenodd" d="M183.638 368.157C184.004 367.029 183.385 365.818 182.257 365.452C181.129 365.087 179.918 365.705 179.552 366.833L176.675 375.713L172.43 367.4C171.891 366.344 170.597 365.925 169.541 366.464C168.485 367.003 168.066 368.297 168.605 369.353L172.85 377.667L163.97 374.79C162.842 374.424 161.631 375.043 161.265 376.171C160.9 377.3 161.518 378.511 162.646 378.876L171.526 381.753L163.213 385.998C162.156 386.537 161.737 387.831 162.277 388.887C162.816 389.943 164.11 390.362 165.166 389.823L173.48 385.578L170.603 394.458C170.237 395.587 170.856 396.798 171.984 397.163C173.112 397.529 174.323 396.91 174.689 395.782L177.566 386.902L181.811 395.215C182.35 396.271 183.644 396.691 184.7 396.151C185.756 395.612 186.175 394.318 185.636 393.262L181.391 384.949L190.271 387.825C191.4 388.191 192.611 387.572 192.976 386.444C193.342 385.316 192.723 384.105 191.595 383.739L182.714 380.862L191.028 376.617C192.084 376.078 192.503 374.784 191.964 373.728C191.424 372.672 190.131 372.253 189.075 372.792L180.761 377.037L183.638 368.157Z" fill="#01BCFF"/>
<path fill-rule="evenodd" clip-rule="evenodd" d="M223.383 298.073C223.898 296.484 223.027 294.778 221.438 294.263C219.849 293.749 218.144 294.62 217.629 296.209L213.826 307.948L208.214 296.958C207.454 295.47 205.633 294.88 204.145 295.64C202.657 296.399 202.067 298.221 202.827 299.709L208.439 310.699L196.699 306.896C195.11 306.381 193.405 307.252 192.89 308.841C192.375 310.43 193.246 312.135 194.835 312.65L206.575 316.453L195.584 322.065C194.097 322.825 193.507 324.646 194.266 326.134C195.026 327.622 196.848 328.212 198.335 327.452L209.325 321.84L205.522 333.58C205.008 335.169 205.878 336.874 207.467 337.389C209.056 337.904 210.762 337.033 211.277 335.444L215.08 323.705L220.691 334.695C221.451 336.182 223.273 336.772 224.76 336.013C226.248 335.253 226.838 333.431 226.079 331.944L220.467 320.954L232.206 324.757C233.795 325.271 235.501 324.401 236.016 322.812C236.53 321.223 235.659 319.517 234.07 319.002L222.331 315.199L233.321 309.587C234.809 308.828 235.399 307.006 234.639 305.518C233.88 304.031 232.058 303.441 230.57 304.2L219.58 309.812L223.383 298.073Z" fill="#01BCFF"/>
<path fill-rule="evenodd" clip-rule="evenodd" d="M165.173 314.355C165.619 312.98 164.865 311.504 163.49 311.058C162.114 310.613 160.638 311.367 160.193 312.742L156.892 322.929L152.022 313.392C151.365 312.104 149.788 311.594 148.501 312.251C147.213 312.909 146.702 314.485 147.36 315.773L152.229 325.31L142.042 322.01C140.667 321.564 139.191 322.318 138.745 323.693C138.3 325.069 139.053 326.545 140.429 326.99L150.616 330.291L141.079 335.161C139.791 335.818 139.281 337.395 139.938 338.682C140.595 339.97 142.172 340.481 143.46 339.823L152.997 334.953L149.697 345.141C149.251 346.516 150.005 347.992 151.38 348.438C152.756 348.883 154.232 348.13 154.677 346.754L157.978 336.567L162.847 346.104C163.505 347.392 165.082 347.902 166.369 347.245C167.657 346.588 168.168 345.011 167.51 343.723L162.64 334.186L172.828 337.486C174.203 337.932 175.679 337.178 176.125 335.803C176.57 334.427 175.816 332.951 174.441 332.506L164.254 329.205L173.791 324.336C175.079 323.678 175.589 322.101 174.932 320.814C174.274 319.526 172.698 319.015 171.41 319.673L161.873 324.543L165.173 314.355Z" fill="#01BCFF"/>
</g>
<g filter="url(#filter6_d_107_328)">
<path fill-rule="evenodd" clip-rule="evenodd" d="M241.727 398.319C242.171 399.929 243.837 400.874 245.447 400.429C247.057 399.985 248.002 398.319 247.557 396.709L244.275 384.823L255 390.907C256.453 391.731 258.299 391.221 259.123 389.768C259.947 388.315 259.438 386.469 257.985 385.645L247.259 379.562L259.145 376.28C260.755 375.835 261.7 374.169 261.255 372.559C260.811 370.949 259.145 370.004 257.535 370.449L245.649 373.731L251.733 363.006C252.557 361.553 252.047 359.707 250.594 358.883C249.141 358.059 247.296 358.569 246.472 360.021L240.388 370.747L237.106 358.861C236.661 357.251 234.995 356.306 233.385 356.751C231.775 357.195 230.83 358.861 231.275 360.471L234.557 372.357L223.832 366.273C222.379 365.449 220.533 365.959 219.709 367.412C218.885 368.865 219.395 370.711 220.848 371.535L231.573 377.618L219.687 380.901C218.077 381.345 217.132 383.011 217.577 384.621C218.021 386.231 219.687 387.176 221.297 386.731L233.183 383.449L227.099 394.174C226.275 395.627 226.785 397.473 228.238 398.297C229.691 399.121 231.537 398.612 232.361 397.159L238.444 386.433L241.727 398.319Z" fill="#01BCFF"/>
<path fill-rule="evenodd" clip-rule="evenodd" d="M281.351 352.712C281.736 354.106 283.178 354.924 284.572 354.539C285.965 354.154 286.783 352.712 286.398 351.319L283.55 341.004L292.857 346.284C294.115 346.997 295.712 346.556 296.426 345.298C297.139 344.041 296.698 342.443 295.44 341.73L286.133 336.451L296.447 333.602C297.841 333.217 298.659 331.776 298.274 330.382C297.889 328.989 296.447 328.171 295.054 328.556L284.739 331.404L290.019 322.097C290.732 320.839 290.291 319.241 289.033 318.528C287.776 317.815 286.178 318.256 285.465 319.514L280.185 328.821L277.337 318.507C276.952 317.113 275.511 316.295 274.117 316.68C272.723 317.065 271.906 318.507 272.29 319.9L275.139 330.214L265.831 324.935C264.574 324.222 262.976 324.663 262.263 325.921C261.55 327.178 261.991 328.776 263.248 329.489L272.556 334.768L262.241 337.617C260.848 338.001 260.03 339.443 260.415 340.837C260.8 342.23 262.241 343.048 263.635 342.663L273.949 339.815L268.67 349.122C267.957 350.38 268.398 351.978 269.655 352.691C270.913 353.404 272.511 352.963 273.224 351.705L278.503 342.398L281.351 352.712Z" fill="#01BCFF"/>
</g>
<defs>
<filter id="filter0_f_107_328" x="-0.00561523" y="0.134277" width="305.076" height="323.712" filterUnits="userSpaceOnUse" color-interpolation-filters="sRGB">
<feFlood flood-opacity="0" result="BackgroundImageFix"/>
<feBlend mode="normal" in="SourceGraphic" in2="BackgroundImageFix" result="shape"/>
<feGaussianBlur stdDeviation="26.5" result="effect1_foregroundBlur_107_328"/>
</filter>
<filter id="filter1_i_107_328" x="59.3618" y="67.4758" width="181.723" height="202.735" filterUnits="userSpaceOnUse" color-interpolation-filters="sRGB">
<feFlood flood-opacity="0" result="BackgroundImageFix"/>
<feBlend mode="normal" in="SourceGraphic" in2="BackgroundImageFix" result="shape"/>
<feColorMatrix in="SourceAlpha" type="matrix" values="0 0 0 0 0 0 0 0 0 0 0 0 0 0 0 0 0 0 127 0" result="hardAlpha"/>
<feOffset dy="4"/>
<feGaussianBlur stdDeviation="4"/>
<feComposite in2="hardAlpha" operator="arithmetic" k2="-1" k3="1"/>
<feColorMatrix type="matrix" values="0 0 0 0 1 0 0 0 0 1 0 0 0 0 1 0 0 0 0.55 0"/>
<feBlend mode="normal" in2="shape" result="effect1_innerShadow_107_328"/>
</filter>
<filter id="filter2_f_107_328" x="14" y="263" width="396" height="191" filterUnits="userSpaceOnUse" color-interpolation-filters="sRGB">
<feFlood flood-opacity="0" result="BackgroundImageFix"/>
<feBlend mode="normal" in="SourceGraphic" in2="BackgroundImageFix" result="shape"/>
<feGaussianBlur stdDeviation="39" result="effect1_foregroundBlur_107_328"/>
</filter>
<filter id="filter3_b_107_328" x="51" y="155" width="303" height="201" filterUnits="userSpaceOnUse" color-interpolation-filters="sRGB">
<feFlood flood-opacity="0" result="BackgroundImageFix"/>
<feGaussianBlur in="BackgroundImageFix" stdDeviation="13.5"/>
<feComposite in2="SourceAlpha" operator="in" result="effect1_backgroundBlur_107_328"/>
<feBlend mode="normal" in="SourceGraphic" in2="effect1_backgroundBlur_107_328" result="shape"/>
</filter>
<filter id="filter4_i_107_328" x="78" y="182" width="249" height="157" filterUnits="userSpaceOnUse" color-interpolation-filters="sRGB">
<feFlood flood-opacity="0" result="BackgroundImageFix"/>
<feBlend mode="normal" in="SourceGraphic" in2="BackgroundImageFix" result="shape"/>
<feColorMatrix in="SourceAlpha" type="matrix" values="0 0 0 0 0 0 0 0 0 0 0 0 0 0 0 0 0 0 127 0" result="hardAlpha"/>
<feOffset dy="11"/>
<feGaussianBlur stdDeviation="5"/>
<feComposite in2="hardAlpha" operator="arithmetic" k2="-1" k3="1"/>
<feColorMatrix type="matrix" values="0 0 0 0 1 0 0 0 0 1 0 0 0 0 1 0 0 0 1 0"/>
<feBlend mode="normal" in2="shape" result="effect1_innerShadow_107_328"/>
</filter>
<filter id="filter5_d_107_328" x="59" y="238" width="244.56" height="245.56" filterUnits="userSpaceOnUse" color-interpolation-filters="sRGB">
<feFlood flood-opacity="0" result="BackgroundImageFix"/>
<feColorMatrix in="SourceAlpha" type="matrix" values="0 0 0 0 0 0 0 0 0 0 0 0 0 0 0 0 0 0 127 0" result="hardAlpha"/>
<feOffset dy="20"/>
<feGaussianBlur stdDeviation="9.5"/>
<feComposite in2="hardAlpha" operator="out"/>
<feColorMatrix type="matrix" values="0 0 0 0 0.282353 0 0 0 0 0.180392 0 0 0 0 0.933333 0 0 0 1 0"/>
<feBlend mode="normal" in2="BackgroundImageFix" result="effect1_dropShadow_107_328"/>
<feBlend mode="normal" in="SourceGraphic" in2="effect1_dropShadow_107_328" result="shape"/>
</filter>
<filter id="filter6_d_107_328" x="133.28" y="238.28" width="239.641" height="240.641" filterUnits="userSpaceOnUse" color-interpolation-filters="sRGB">
<feFlood flood-opacity="0" result="BackgroundImageFix"/>
<feColorMatrix in="SourceAlpha" type="matrix" values="0 0 0 0 0 0 0 0 0 0 0 0 0 0 0 0 0 0 127 0" result="hardAlpha"/>
<feOffset dy="20"/>
<feGaussianBlur stdDeviation="9.5"/>
<feComposite in2="hardAlpha" operator="out"/>
<feColorMatrix type="matrix" values="0 0 0 0 0.282353 0 0 0 0 0.180392 0 0 0 0 0.933333 0 0 0 1 0"/>
<feBlend mode="normal" in2="BackgroundImageFix" result="effect1_dropShadow_107_328"/>
<feBlend mode="normal" in="SourceGraphic" in2="effect1_dropShadow_107_328" result="shape"/>
</filter>
<linearGradient id="paint0_linear_107_328" x1="155.5" y1="51.0001" x2="119.175" y2="270.951" gradientUnits="userSpaceOnUse">
<stop stop-color="#FFEE94"/>
<stop offset="1" stop-color="#FF9900"/>
</linearGradient>
<linearGradient id="paint1_linear_107_328" x1="93.8375" y1="315.875" x2="344.038" y2="127.734" gradientUnits="userSpaceOnUse">
<stop stop-color="white"/>
<stop offset="1" stop-color="white" stop-opacity="0.58"/>
</linearGradient>
</defs>
</svg>
