<svg width="306" height="395" viewBox="0 0 306 395" fill="none" xmlns="http://www.w3.org/2000/svg">
<g filter="url(#filter0_i_107_276)">
<path d="M186.775 263H136.75L115 321.486H154.15L136.025 394.5L202 298.711H173L186.775 263Z" fill="url(#paint0_linear_107_276)"/>
</g>
<g filter="url(#filter1_di_107_276)">
<path d="M237.151 324.575C229.385 328.024 226.354 330.938 223.575 338.151C221.363 331.161 218.642 328.043 210 324.575C218.89 321.679 221.303 318.326 223.575 311C226.368 317.752 228.092 321.437 237.151 324.575Z" fill="url(#paint1_linear_107_276)"/>
</g>
<g filter="url(#filter2_i_107_276)">
<path d="M100.151 297.575C92.385 301.024 89.354 303.938 86.575 311.151C84.363 304.161 81.642 301.043 73 297.575C81.89 294.679 84.303 291.326 86.575 284C89.368 290.752 91.092 294.437 100.151 297.575Z" fill="url(#paint2_linear_107_276)"/>
</g>
<g filter="url(#filter3_i_107_276)">
<path d="M269.065 109.44C269.484 107.071 269.702 104.633 269.702 102.145C269.702 78.8689 250.588 60 227.008 60C209.479 60 194.417 70.4282 187.842 85.3428C182.515 80.803 175.603 78.0621 168.05 78.0621C151.207 78.0621 137.554 91.6896 137.554 108.5C137.554 109.436 137.596 110.362 137.679 111.277C129.578 115.194 124 123.412 124 132.917C124 146.218 134.923 157 148.397 157H263.603C277.077 157 288 146.218 288 132.917C288 121.47 279.909 111.889 269.065 109.44Z" fill="url(#paint3_linear_107_276)"/>
</g>
<g filter="url(#filter4_f_107_276)">
<path d="M152.855 53.1342C127.788 87.1678 123.442 133.614 145.554 171.914C167.666 210.213 210.063 229.672 252.07 224.981C243.138 237.108 231.576 247.659 217.642 255.704C164.604 286.325 97.2955 269.038 67.3042 217.091C37.3128 165.145 55.9957 98.2101 109.034 67.5887C122.967 59.544 137.886 54.8059 152.855 53.1342Z" fill="#FFEE94"/>
</g>
<g filter="url(#filter5_i_107_276)">
<path d="M150.517 67.4759C127.636 98.5429 123.668 140.941 143.853 175.902C164.038 210.863 202.739 228.626 241.085 224.343C232.931 235.413 222.377 245.045 209.657 252.388C161.243 280.34 99.8012 264.56 72.4241 217.141C45.047 169.723 62.1014 108.623 110.516 80.6704C123.235 73.327 136.854 69.0019 150.517 67.4759Z" fill="url(#paint4_linear_107_276)"/>
</g>
<g filter="url(#filter6_b_107_276)">
<g filter="url(#filter7_i_107_276)">
<path d="M218.873 225.402C219.274 223.13 219.483 220.792 219.483 218.407C219.483 196.091 201.184 178 178.612 178C161.831 178 147.412 187.998 141.117 202.298C136.018 197.945 129.401 195.317 122.169 195.317C106.046 195.317 92.9752 208.383 92.9752 224.5C92.9752 225.397 93.0157 226.285 93.0951 227.162C85.34 230.918 80 238.798 80 247.91C80 260.662 90.4566 271 103.355 271H213.645C226.543 271 237 260.662 237 247.91C237 236.935 229.255 227.749 218.873 225.402Z" fill="url(#paint5_linear_107_276)"/>
</g>
</g>
<defs>
<filter id="filter0_i_107_276" x="113" y="263" width="89" height="131.5" filterUnits="userSpaceOnUse" color-interpolation-filters="sRGB">
<feFlood flood-opacity="0" result="BackgroundImageFix"/>
<feBlend mode="normal" in="SourceGraphic" in2="BackgroundImageFix" result="shape"/>
<feColorMatrix in="SourceAlpha" type="matrix" values="0 0 0 0 0 0 0 0 0 0 0 0 0 0 0 0 0 0 127 0" result="hardAlpha"/>
<feOffset dx="-2"/>
<feGaussianBlur stdDeviation="4.5"/>
<feComposite in2="hardAlpha" operator="arithmetic" k2="-1" k3="1"/>
<feColorMatrix type="matrix" values="0 0 0 0 1 0 0 0 0 1 0 0 0 0 1 0 0 0 0.5 0"/>
<feBlend mode="normal" in2="shape" result="effect1_innerShadow_107_276"/>
</filter>
<filter id="filter1_di_107_276" x="201.233" y="311" width="44.6858" height="46.9183" filterUnits="userSpaceOnUse" color-interpolation-filters="sRGB">
<feFlood flood-opacity="0" result="BackgroundImageFix"/>
<feColorMatrix in="SourceAlpha" type="matrix" values="0 0 0 0 0 0 0 0 0 0 0 0 0 0 0 0 0 0 127 0" result="hardAlpha"/>
<feOffset dy="11"/>
<feGaussianBlur stdDeviation="4.38372"/>
<feColorMatrix type="matrix" values="0 0 0 0 0.285052 0 0 0 0 0.179688 0 0 0 0 0.9375 0 0 0 1 0"/>
<feBlend mode="normal" in2="BackgroundImageFix" result="effect1_dropShadow_107_276"/>
<feBlend mode="normal" in="SourceGraphic" in2="effect1_dropShadow_107_276" result="shape"/>
<feColorMatrix in="SourceAlpha" type="matrix" values="0 0 0 0 0 0 0 0 0 0 0 0 0 0 0 0 0 0 127 0" result="hardAlpha"/>
<feOffset dy="4"/>
<feGaussianBlur stdDeviation="2"/>
<feComposite in2="hardAlpha" operator="arithmetic" k2="-1" k3="1"/>
<feColorMatrix type="matrix" values="0 0 0 0 1 0 0 0 0 1 0 0 0 0 1 0 0 0 0.44 0"/>
<feBlend mode="normal" in2="shape" result="effect2_innerShadow_107_276"/>
</filter>
<filter id="filter2_i_107_276" x="73" y="284" width="27.1509" height="31.1509" filterUnits="userSpaceOnUse" color-interpolation-filters="sRGB">
<feFlood flood-opacity="0" result="BackgroundImageFix"/>
<feBlend mode="normal" in="SourceGraphic" in2="BackgroundImageFix" result="shape"/>
<feColorMatrix in="SourceAlpha" type="matrix" values="0 0 0 0 0 0 0 0 0 0 0 0 0 0 0 0 0 0 127 0" result="hardAlpha"/>
<feOffset dy="4"/>
<feGaussianBlur stdDeviation="2"/>
<feComposite in2="hardAlpha" operator="arithmetic" k2="-1" k3="1"/>
<feColorMatrix type="matrix" values="0 0 0 0 1 0 0 0 0 1 0 0 0 0 1 0 0 0 0.44 0"/>
<feBlend mode="normal" in2="shape" result="effect1_innerShadow_107_276"/>
</filter>
<filter id="filter3_i_107_276" x="124" y="60" width="164" height="107" filterUnits="userSpaceOnUse" color-interpolation-filters="sRGB">
<feFlood flood-opacity="0" result="BackgroundImageFix"/>
<feBlend mode="normal" in="SourceGraphic" in2="BackgroundImageFix" result="shape"/>
<feColorMatrix in="SourceAlpha" type="matrix" values="0 0 0 0 0 0 0 0 0 0 0 0 0 0 0 0 0 0 127 0" result="hardAlpha"/>
<feOffset dy="11"/>
<feGaussianBlur stdDeviation="5"/>
<feComposite in2="hardAlpha" operator="arithmetic" k2="-1" k3="1"/>
<feColorMatrix type="matrix" values="0 0 0 0 1 0 0 0 0 1 0 0 0 0 1 0 0 0 1 0"/>
<feBlend mode="normal" in2="shape" result="effect1_innerShadow_107_276"/>
</filter>
<filter id="filter4_f_107_276" x="-0.00561523" y="0.134277" width="305.076" height="323.712" filterUnits="userSpaceOnUse" color-interpolation-filters="sRGB">
<feFlood flood-opacity="0" result="BackgroundImageFix"/>
<feBlend mode="normal" in="SourceGraphic" in2="BackgroundImageFix" result="shape"/>
<feGaussianBlur stdDeviation="26.5" result="effect1_foregroundBlur_107_276"/>
</filter>
<filter id="filter5_i_107_276" x="59.3618" y="67.4758" width="181.723" height="202.735" filterUnits="userSpaceOnUse" color-interpolation-filters="sRGB">
<feFlood flood-opacity="0" result="BackgroundImageFix"/>
<feBlend mode="normal" in="SourceGraphic" in2="BackgroundImageFix" result="shape"/>
<feColorMatrix in="SourceAlpha" type="matrix" values="0 0 0 0 0 0 0 0 0 0 0 0 0 0 0 0 0 0 127 0" result="hardAlpha"/>
<feOffset dy="4"/>
<feGaussianBlur stdDeviation="4"/>
<feComposite in2="hardAlpha" operator="arithmetic" k2="-1" k3="1"/>
<feColorMatrix type="matrix" values="0 0 0 0 1 0 0 0 0 1 0 0 0 0 1 0 0 0 0.55 0"/>
<feBlend mode="normal" in2="shape" result="effect1_innerShadow_107_276"/>
</filter>
<filter id="filter6_b_107_276" x="53" y="151" width="211" height="147" filterUnits="userSpaceOnUse" color-interpolation-filters="sRGB">
<feFlood flood-opacity="0" result="BackgroundImageFix"/>
<feGaussianBlur in="BackgroundImageFix" stdDeviation="13.5"/>
<feComposite in2="SourceAlpha" operator="in" result="effect1_backgroundBlur_107_276"/>
<feBlend mode="normal" in="SourceGraphic" in2="effect1_backgroundBlur_107_276" result="shape"/>
</filter>
<filter id="filter7_i_107_276" x="80" y="178" width="157" height="103" filterUnits="userSpaceOnUse" color-interpolation-filters="sRGB">
<feFlood flood-opacity="0" result="BackgroundImageFix"/>
<feBlend mode="normal" in="SourceGraphic" in2="BackgroundImageFix" result="shape"/>
<feColorMatrix in="SourceAlpha" type="matrix" values="0 0 0 0 0 0 0 0 0 0 0 0 0 0 0 0 0 0 127 0" result="hardAlpha"/>
<feOffset dy="11"/>
<feGaussianBlur stdDeviation="5"/>
<feComposite in2="hardAlpha" operator="arithmetic" k2="-1" k3="1"/>
<feColorMatrix type="matrix" values="0 0 0 0 1 0 0 0 0 1 0 0 0 0 1 0 0 0 1 0"/>
<feBlend mode="normal" in2="shape" result="effect1_innerShadow_107_276"/>
</filter>
<linearGradient id="paint0_linear_107_276" x1="147.747" y1="381.833" x2="232.616" y2="264.678" gradientUnits="userSpaceOnUse">
<stop stop-color="#FF9900"/>
<stop offset="1" stop-color="#FFEE94"/>
</linearGradient>
<linearGradient id="paint1_linear_107_276" x1="219.648" y1="339.423" x2="232.425" y2="315.433" gradientUnits="userSpaceOnUse">
<stop stop-color="#FF9900"/>
<stop offset="1" stop-color="#FFEE94"/>
</linearGradient>
<linearGradient id="paint2_linear_107_276" x1="82.648" y1="312.423" x2="95.425" y2="288.433" gradientUnits="userSpaceOnUse">
<stop stop-color="#FF9900"/>
<stop offset="1" stop-color="#FFEE94"/>
</linearGradient>
<linearGradient id="paint3_linear_107_276" x1="134.431" y1="148.339" x2="299.444" y2="24.4871" gradientUnits="userSpaceOnUse">
<stop stop-color="white"/>
<stop offset="1" stop-color="white" stop-opacity="0.58"/>
</linearGradient>
<linearGradient id="paint4_linear_107_276" x1="155.5" y1="51.0001" x2="119.175" y2="270.951" gradientUnits="userSpaceOnUse">
<stop stop-color="#FFEE94"/>
<stop offset="1" stop-color="#FF9900"/>
</linearGradient>
<linearGradient id="paint5_linear_107_276" x1="89.9859" y1="262.696" x2="248.127" y2="144.181" gradientUnits="userSpaceOnUse">
<stop stop-color="white"/>
<stop offset="1" stop-color="white" stop-opacity="0.58"/>
</linearGradient>
</defs>
</svg>
